<?xml version="1.0" encoding="UTF-8" ?>
<svg version="1.1" width="800" height="800" xmlns="http://www.w3.org/2000/svg" shape-rendering="crispEdges">
<rect x="300" y="100" width="50" height="50" fill="#221405" />
<rect x="350" y="100" width="50" height="50" fill="#221405" />
<rect x="550" y="100" width="50" height="50" fill="#221405" />
<rect x="600" y="100" width="50" height="50" fill="#221405" />
<rect x="300" y="150" width="50" height="50" fill="#221405" />
<rect x="350" y="150" width="50" height="50" fill="#B0702E" />
<rect x="400" y="150" width="50" height="50" fill="#221405" />
<rect x="450" y="150" width="50" height="50" fill="#221405" />
<rect x="500" y="150" width="50" height="50" fill="#221405" />
<rect x="550" y="150" width="50" height="50" fill="#B0702E" />
<rect x="600" y="150" width="50" height="50" fill="#221405" />
<rect x="300" y="200" width="50" height="50" fill="#221405" />
<rect x="350" y="200" width="50" height="50" fill="#B0702E" />
<rect x="400" y="200" width="50" height="50" fill="#D7924B" />
<rect x="450" y="200" width="50" height="50" fill="#D7924B" />
<rect x="500" y="200" width="50" height="50" fill="#D7924B" />
<rect x="550" y="200" width="50" height="50" fill="#D7924B" />
<rect x="600" y="200" width="50" height="50" fill="#221405" />
<rect x="300" y="250" width="50" height="50" fill="#221405" />
<rect x="350" y="250" width="50" height="50" fill="#B0702E" />
<rect x="400" y="250" width="50" height="50" fill="#221405" />
<rect x="450" y="250" width="50" height="50" fill="#B0702E" />
<rect x="500" y="250" width="50" height="50" fill="#B0702E" />
<rect x="550" y="250" width="50" height="50" fill="#221405" />
<rect x="600" y="250" width="50" height="50" fill="#221405" />
<rect x="300" y="300" width="50" height="50" fill="#221405" />
<rect x="350" y="300" width="50" height="50" fill="#B0702E" />
<rect x="400" y="300" width="50" height="50" fill="#D7924B" />
<rect x="450" y="300" width="50" height="50" fill="#D7924B" />
<rect x="500" y="300" width="50" height="50" fill="#D7924B" />
<rect x="550" y="300" width="50" height="50" fill="#D7924B" />
<rect x="600" y="300" width="50" height="50" fill="#221405" />
<rect x="300" y="350" width="50" height="50" fill="#221405" />
<rect x="350" y="350" width="50" height="50" fill="#B0702E" />
<rect x="400" y="350" width="50" height="50" fill="#B0702E" />
<rect x="450" y="350" width="50" height="50" fill="#B0702E" />
<rect x="500" y="350" width="50" height="50" fill="#B0702E" />
<rect x="550" y="350" width="50" height="50" fill="#B0702E" />
<rect x="600" y="350" width="50" height="50" fill="#221405" />
<rect x="250" y="400" width="50" height="50" fill="#221405" />
<rect x="300" y="400" width="50" height="50" fill="#B0702E" />
<rect x="350" y="400" width="50" height="50" fill="#B0702E" />
<rect x="400" y="400" width="50" height="50" fill="#D7924B" />
<rect x="450" y="400" width="50" height="50" fill="#D7924B" />
<rect x="500" y="400" width="50" height="50" fill="#D7924B" />
<rect x="550" y="400" width="50" height="50" fill="#221405" />
<rect x="250" y="450" width="50" height="50" fill="#221405" />
<rect x="300" y="450" width="50" height="50" fill="#B0702E" />
<rect x="350" y="450" width="50" height="50" fill="#B0702E" />
<rect x="400" y="450" width="50" height="50" fill="#D7924B" />
<rect x="450" y="450" width="50" height="50" fill="#D7924B" />
<rect x="500" y="450" width="50" height="50" fill="#D7924B" />
<rect x="550" y="450" width="50" height="50" fill="#221405" />
<rect x="50" y="500" width="50" height="50" fill="#221405" />
<rect x="100" y="500" width="50" height="50" fill="#221405" />
<rect x="250" y="500" width="50" height="50" fill="#221405" />
<rect x="300" y="500" width="50" height="50" fill="#B0702E" />
<rect x="350" y="500" width="50" height="50" fill="#D7924B" />
<rect x="400" y="500" width="50" height="50" fill="#D7924B" />
<rect x="450" y="500" width="50" height="50" fill="#D7924B" />
<rect x="500" y="500" width="50" height="50" fill="#D7924B" />
<rect x="550" y="500" width="50" height="50" fill="#221405" />
<rect x="50" y="550" width="50" height="50" fill="#221405" />
<rect x="100" y="550" width="50" height="50" fill="#B0702E" />
<rect x="150" y="550" width="50" height="50" fill="#221405" />
<rect x="200" y="550" width="50" height="50" fill="#221405" />
<rect x="250" y="550" width="50" height="50" fill="#B0702E" />
<rect x="300" y="550" width="50" height="50" fill="#B0702E" />
<rect x="350" y="550" width="50" height="50" fill="#D7924B" />
<rect x="400" y="550" width="50" height="50" fill="#221405" />
<rect x="450" y="550" width="50" height="50" fill="#D7924B" />
<rect x="500" y="550" width="50" height="50" fill="#221405" />
<rect x="550" y="550" width="50" height="50" fill="#D7924B" />
<rect x="600" y="550" width="50" height="50" fill="#221405" />
<rect x="100" y="600" width="50" height="50" fill="#221405" />
<rect x="150" y="600" width="50" height="50" fill="#B0702E" />
<rect x="200" y="600" width="50" height="50" fill="#221405" />
<rect x="250" y="600" width="50" height="50" fill="#B0702E" />
<rect x="300" y="600" width="50" height="50" fill="#B0702E" />
<rect x="350" y="600" width="50" height="50" fill="#D7924B" />
<rect x="400" y="600" width="50" height="50" fill="#221405" />
<rect x="450" y="600" width="50" height="50" fill="#D7924B" />
<rect x="500" y="600" width="50" height="50" fill="#221405" />
<rect x="550" y="600" width="50" height="50" fill="#D7924B" />
<rect x="600" y="600" width="50" height="50" fill="#221405" />
<rect x="150" y="650" width="50" height="50" fill="#221405" />
<rect x="200" y="650" width="50" height="50" fill="#221405" />
<rect x="250" y="650" width="50" height="50" fill="#221405" />
<rect x="300" y="650" width="50" height="50" fill="#221405" />
<rect x="350" y="650" width="50" height="50" fill="#221405" />
<rect x="400" y="650" width="50" height="50" fill="#221405" />
<rect x="450" y="650" width="50" height="50" fill="#221405" />
<rect x="500" y="650" width="50" height="50" fill="#221405" />
<rect x="550" y="650" width="50" height="50" fill="#221405" />
<rect x="600" y="650" width="50" height="50" fill="#221405" />
</svg>